<svg width="22" height="22" viewBox="0 0 22 22" fill="none" xmlns="http://www.w3.org/2000/svg">
<path d="M10.4167 0.375V2.8125C12.8039 2.8125 15.048 3.742 16.7364 5.43038C18.4247 7.11875 19.3542 9.36287 19.3542 11.75H21.7917C21.7917 8.73316 20.5933 5.83989 18.4601 3.70666C16.3269 1.57343 13.4336 0.375 10.4167 0.375ZM12.8542 5.25L11.2292 6.875L5.54175 8.5L0.666748 19.0625L1.31025 19.706L7.222 13.7943C7.12938 13.4487 7.15337 13.0823 7.29025 12.7518C7.42712 12.4213 7.66923 12.1452 7.97903 11.9663C8.28883 11.7874 8.64899 11.7157 9.00366 11.7624C9.35833 11.8091 9.68769 11.9715 9.94064 12.2245C10.1936 12.4774 10.356 12.8068 10.4027 13.1615C10.4494 13.5161 10.3777 13.8763 10.1988 14.1861C10.02 14.4959 9.74386 14.738 9.41335 14.8749C9.08284 15.0118 8.71641 15.0357 8.37087 14.9431L2.45912 20.8549L3.10262 21.4984L13.6651 16.6234L15.2901 10.9359L16.9151 9.31087L12.8526 5.24837L12.8542 5.25Z" fill="white"/>
</svg>
