<svg width="24" height="25" viewBox="0 0 24 25" fill="none" xmlns="http://www.w3.org/2000/svg">
<path d="M11.2576 22.25H9.73875C5.855 22.25 3.91367 22.25 2.70683 21.0204C1.5 19.7908 1.5 17.8116 1.5 13.8542C1.5 9.89676 1.5 7.91751 2.70683 6.68793C3.91367 5.45834 5.855 5.45834 9.73875 5.45834H13.8587C17.7424 5.45834 19.6848 5.45834 20.8917 6.68793C21.8201 7.63368 22.0335 9.02359 22.0833 11.4167" stroke="white" stroke-width="1.625" stroke-linecap="round" stroke-linejoin="round"/>
<path d="M21.0185 21.1916L23.1667 23.3333M16.6667 5.45834L16.5584 5.12251C16.0222 3.45417 15.7546 2.62001 15.1165 2.14334C14.4773 1.66667 13.6302 1.66667 11.9326 1.66667H11.6477C9.95225 1.66667 9.104 1.66667 8.46592 2.14334C7.82675 2.62001 7.55916 3.45417 7.02291 5.12251L6.91675 5.45834M22.1408 18.4865C22.1494 17.9794 22.0569 17.4757 21.8687 17.0047C21.6805 16.5337 21.4005 16.1049 21.0449 15.7432C20.6893 15.3816 20.2653 15.0944 19.7975 14.8983C19.3297 14.7022 18.8276 14.6013 18.3205 14.6013C17.8133 14.6013 17.3112 14.7022 16.8434 14.8983C16.3757 15.0944 15.9516 15.3816 15.596 15.7432C15.2404 16.1049 14.9604 16.5337 14.7722 17.0047C14.584 17.4757 14.4915 17.9794 14.5001 18.4865C14.517 19.4886 14.9269 20.4439 15.6415 21.1466C16.3561 21.8493 17.3182 22.2431 18.3205 22.2431C19.3227 22.2431 20.2848 21.8493 20.9994 21.1466C21.714 20.4439 22.124 19.4886 22.1408 18.4865Z" stroke="white" stroke-width="1.625" stroke-linecap="round" stroke-linejoin="round"/>
</svg>
