<svg width="20" height="23" viewBox="0 0 20 23" fill="none" xmlns="http://www.w3.org/2000/svg">
<path d="M0.25 19.625H3.5V22.875H0.25V19.625ZM8.375 19.625H11.625V22.875H8.375V19.625ZM16.5 19.625H19.75V22.875H16.5V19.625ZM17.3125 13.125H10.8125V11.5H9.1875V13.125H2.6875C1.79131 13.125 1.0625 13.8546 1.0625 14.75V18H2.6875V14.75H9.1875V18H10.8125V14.75H17.3125V18H18.9375V14.75C18.9375 13.8546 18.2087 13.125 17.3125 13.125ZM13.25 0.125H6.75C5.85381 0.125 5.125 0.854625 5.125 1.75V8.25C5.125 9.14619 5.85381 9.875 6.75 9.875H13.25C14.1462 9.875 14.875 9.14619 14.875 8.25V1.75C14.875 0.854625 14.1462 0.125 13.25 0.125ZM12.1011 1.75L6.75 7.10113V1.75H12.1011ZM7.89887 8.25L13.25 2.89887L13.2508 8.25H7.89887Z" fill="white"/>
</svg>
