<svg width="24" height="24" viewBox="0 0 24 24" fill="none" xmlns="http://www.w3.org/2000/svg">
<path d="M6.93818 10C6.24718 10.005 5.83118 10.026 5.50018 10.114C3.99218 10.514 2.96018 11.864 3.00118 13.384C3.01318 13.825 3.18118 14.37 3.51618 15.459C4.32318 18.079 5.68018 20.354 8.71818 20.899C9.27718 21 9.90618 21 11.1632 21H12.8372C14.0942 21 14.7232 21 15.2822 20.9C18.3202 20.354 19.6772 18.079 20.4842 15.459C20.8192 14.369 20.9872 13.825 20.9992 13.385C21.0392 11.864 20.0082 10.513 18.5002 10.114C18.1702 10.026 17.7532 10.005 17.0632 10M12.0002 3V14M12.0002 3C12.4682 3 12.8242 3.438 13.5362 4.314L14.5002 5.5M12.0002 3C11.5322 3 11.1762 3.438 10.4642 4.314L9.50018 5.5" stroke="#707070" stroke-width="1.5" stroke-linecap="round" stroke-linejoin="round"/>
</svg>
